<?xml version="1.0" standalone="no"?>
<!DOCTYPE svg PUBLIC "-//W3C//DTD SVG 20010904//EN"
 "http://www.w3.org/TR/2001/REC-SVG-20010904/DTD/svg10.dtd">
<svg version="1.0" xmlns="http://www.w3.org/2000/svg"
 width="1024.000000pt" height="1024.000000pt" viewBox="0 0 1024.000000 1024.000000"
 preserveAspectRatio="xMidYMid meet">

<g transform="translate(0.000000,1024.000000) scale(0.100000,-0.100000)"
fill="#000000" stroke="none">
<path d="M4815 10229 c-147 -10 -276 -24 -460 -50 -531 -77 -1147 -277 -1565
-509 -168 -93 -167 -93 -95 -86 33 3 72 9 88 12 17 4 27 2 27 -5 0 -6 -10 -11
-22 -12 -19 -1 -18 -2 6 -10 19 -5 34 -4 42 2 8 6 27 8 44 4 19 -4 41 -1 61 9
42 21 47 20 20 -4 l-23 -19 36 6 c24 4 36 2 36 -6 0 -6 -7 -11 -15 -11 -8 0
-15 -4 -15 -9 0 -5 10 -7 22 -3 l21 5 -22 -22 c-29 -29 -19 -42 22 -30 40 11
37 12 37 -5 0 -10 -16 -17 -45 -22 -25 -3 -47 -10 -50 -14 -8 -12 46 -22 59
-11 9 8 19 5 34 -10 30 -27 28 -31 -14 -23 -27 5 -35 4 -30 -5 4 -6 13 -11 20
-11 8 0 19 -7 26 -15 11 -13 5 -15 -41 -16 -55 -1 -56 -2 -4 -15 l30 -7 -39
-7 c-21 -4 -56 -3 -78 3 -43 11 -45 10 -50 -17 -2 -15 7 -23 37 -35 22 -8 42
-19 43 -23 2 -4 10 -8 17 -8 7 0 16 -7 19 -16 9 -23 8 -26 -6 -18 -7 4 -27 7
-44 6 -19 -2 -36 3 -41 11 -10 17 -51 28 -59 16 -3 -5 0 -9 6 -9 6 0 8 -4 5
-10 -3 -5 -15 -10 -26 -10 -10 0 -19 -4 -19 -10 0 -5 12 -7 28 -4 15 2 47 1
72 -4 l45 -8 -70 -23 c-77 -26 -242 -54 -257 -45 -11 7 -48 -10 -93 -42 -47
-34 -106 -56 -149 -55 -42 1 -109 -26 -100 -40 3 -5 0 -9 -5 -9 -6 0 -11 -7
-11 -16 0 -9 -10 -24 -22 -34 -13 -10 -34 -40 -48 -67 -13 -26 -29 -51 -34
-55 -13 -8 -62 1 -96 19 -14 7 -39 13 -56 13 -17 0 -44 7 -60 15 -29 14 -93
76 -131 127 l-21 28 -53 -47 c-30 -26 -85 -76 -122 -112 l-68 -66 178 -5 178
-6 -185 -2 -186 -2 -33 -28 c-25 -21 -32 -33 -27 -47 9 -25 64 -61 116 -75 24
-6 40 -17 40 -25 0 -8 8 -15 19 -15 10 0 24 -7 31 -15 10 -12 38 -15 131 -15
65 0 120 -4 124 -9 3 -5 8 -66 12 -135 6 -122 16 -154 29 -100 7 26 7 26 77
19 53 -5 72 -3 78 7 5 7 9 49 9 93 0 44 3 90 6 103 l6 22 642 -2 642 -3 -4 28
c-4 25 -1 27 27 27 19 0 30 4 26 10 -8 13 43 33 67 27 12 -3 19 1 20 11 0 10
2 24 3 32 1 8 -3 21 -8 28 -8 10 -12 10 -18 0 -13 -21 -22 -1 -9 21 14 26 52
29 43 4 -5 -14 -1 -13 19 5 14 13 37 22 55 22 18 0 33 6 37 15 6 17 26 21 26
5 0 -5 -9 -19 -20 -30 l-20 -20 35 0 c37 0 47 -18 21 -39 -12 -10 -4 -23 50
-77 36 -35 71 -64 78 -64 8 0 19 -6 25 -14 9 -11 8 -17 -4 -29 -12 -12 -12
-17 -3 -24 26 -16 98 15 98 43 0 22 57 45 116 47 50 2 54 4 49 22 -3 11 -8 37
-11 57 -6 36 -5 39 28 52 51 22 63 23 63 6 0 -8 4 -21 8 -27 5 -7 5 -17 2 -23
-3 -5 -4 -10 -2 -10 9 0 67 22 67 26 0 2 -10 19 -22 37 -13 19 -28 43 -34 52
-9 17 -13 17 -66 -7 -45 -21 -64 -25 -91 -18 -50 11 -54 15 -72 70 -15 45 -15
53 -2 73 8 13 35 29 58 37 24 8 54 20 65 27 12 8 26 13 30 11 13 -3 74 31 74
42 0 6 9 10 21 10 14 0 19 5 16 13 -5 13 65 67 88 67 6 0 18 9 28 20 14 17 14
20 2 20 -8 0 -15 4 -15 9 0 14 53 23 84 15 20 -5 25 -3 21 8 -7 17 65 39 115
34 19 -1 40 1 45 4 14 10 68 24 83 21 6 -1 28 3 48 8 30 8 34 8 23 -5 -9 -11
-8 -14 3 -14 8 0 19 5 25 11 8 8 13 8 18 -1 5 -8 12 -7 23 4 15 12 26 13 77 2
56 -12 58 -14 35 -24 -24 -10 -23 -11 15 -12 22 -1 53 -1 69 0 16 1 26 -2 22
-8 -3 -5 24 -12 62 -15 78 -8 230 -51 251 -71 11 -12 9 -17 -17 -30 -35 -18
-110 -20 -192 -7 -139 24 -130 24 -80 3 34 -15 47 -27 53 -49 7 -24 17 -32 54
-41 24 -7 50 -9 56 -5 7 4 3 9 -12 13 -14 3 -27 12 -29 19 -5 14 1 13 102 -6
25 -5 28 -4 22 15 -6 17 0 22 44 37 32 11 64 15 85 11 36 -7 54 6 36 27 -5 7
-8 23 -4 35 5 22 34 29 67 16 25 -10 19 -24 -11 -24 -24 0 -25 -2 -13 -14 29
-29 65 -29 97 -2 17 14 42 26 55 26 14 0 62 11 109 25 81 24 133 27 99 4 -16
-10 75 -3 143 11 28 6 40 5 43 -5 3 -7 14 -11 25 -8 28 8 7 29 -36 37 -33 6
-42 15 -30 28 3 3 25 1 48 -3 23 -5 78 -13 122 -19 44 -6 110 -19 147 -30 76
-23 78 -23 78 -10 0 5 -16 12 -36 16 -25 5 -38 14 -45 31 -13 36 -12 39 24 54
17 7 50 28 71 46 38 32 96 46 96 23 0 -5 9 -10 19 -10 27 0 34 -15 19 -40 -10
-16 -10 -22 -1 -28 7 -5 11 -21 9 -40 -3 -20 1 -38 10 -47 21 -21 9 -52 -28
-71 -39 -20 -31 -27 13 -12 45 15 80 43 69 54 -5 5 -16 22 -24 38 -12 23 -13
33 -3 44 9 11 8 17 -6 27 -22 16 -22 35 1 35 9 0 24 5 32 10 13 9 13 11 0 19
-23 15 -3 25 25 13 21 -10 24 -17 19 -37 -5 -19 -2 -25 11 -25 9 0 13 5 10 11
-4 6 2 13 14 16 12 3 21 10 21 15 0 6 15 8 34 6 19 -2 33 -1 30 3 -7 11 14 21
27 13 8 -4 7 -9 -2 -15 -11 -7 -10 -9 3 -9 9 0 24 -3 34 -7 15 -5 16 -2 11 25
l-6 32 92 1 c50 1 103 4 117 9 l25 7 -24 10 c-23 9 -21 10 20 21 58 15 261 42
319 42 25 0 50 -4 56 -9 10 -9 160 15 184 30 16 10 26 14 54 23 32 11 -1 36
-46 36 -34 0 -39 2 -29 14 10 12 8 17 -8 25 -25 14 -51 14 -51 1 0 -5 -10 -10
-22 -9 l-23 0 23 10 c13 5 22 14 20 21 -6 16 -233 134 -423 219 -392 175 -833
308 -1236 374 -418 67 -790 88 -1154 64z m-1935 -599 c18 -12 2 -12 -25 0 -13
6 -15 9 -5 9 8 0 22 -4 30 -9z m4423 -7 c-7 -2 -19 -2 -25 0 -7 3 -2 5 12 5
14 0 19 -2 13 -5z m-4443 -6 c0 -2 -12 -14 -26 -28 -25 -22 -26 -23 -15 -2 9
18 19 26 39 32 1 1 2 0 2 -2z m133 -4 c-7 -2 -19 -2 -25 0 -7 3 -2 5 12 5 14
0 19 -2 13 -5z m3037 -2 c-8 -5 -33 -5 -55 -1 -40 8 -40 8 15 9 35 0 50 -3 40
-8z m146 -13 c-9 -5 -31 -8 -49 -6 -31 4 -32 4 -8 14 13 6 35 8 49 6 21 -4 22
-6 8 -14z m143 18 c-2 -2 -20 -6 -39 -10 -25 -4 -31 -3 -20 4 14 9 69 15 59 6z
m1146 -5 c3 -5 -1 -16 -10 -24 -16 -16 -21 -15 92 -20 22 -1 39 -6 36 -11 -5
-8 -175 0 -221 11 l-22 5 27 24 c28 24 86 33 98 15z m-4530 -11 c-3 -5 -14
-10 -23 -10 -15 0 -15 2 -2 10 20 13 33 13 25 0z m104 -16 c-9 -11 -7 -14 11
-14 26 0 19 -13 -8 -15 -13 -1 -18 6 -17 26 0 17 4 25 13 22 9 -4 10 -9 1 -19z
m4494 19 c-7 -2 -19 -2 -25 0 -7 3 -2 5 12 5 14 0 19 -2 13 -5z m-1488 -13 c3
-5 -1 -10 -9 -10 -9 0 -16 5 -16 10 0 6 4 10 9 10 6 0 13 -4 16 -10z m-52 -7
c-7 -2 -19 -2 -25 0 -7 3 -2 5 12 5 14 0 19 -2 13 -5z m-1213 -13 c-18 -12
-87 -13 -93 -2 -3 4 20 8 51 9 39 1 52 -1 42 -7z m2783 3 c-7 -2 -19 -2 -25 0
-7 3 -2 5 12 5 14 0 19 -2 13 -5z m-3053 -23 c14 -11 30 -20 35 -20 6 0 3 4
-5 10 -24 15 -7 18 20 3 19 -9 20 -13 8 -13 -10 0 -18 -4 -18 -10 0 -5 -10
-10 -22 -10 -19 0 -20 -2 -8 -10 13 -8 13 -10 1 -10 -8 0 -24 -8 -35 -19 -19
-16 -24 -17 -53 -5 -44 19 -42 32 6 40 31 5 39 11 38 25 -1 11 -6 18 -12 15
-7 -2 -12 2 -12 10 0 20 28 17 57 -6z m-170 1 c0 -9 -41 -23 -48 -16 -2 2 -1
8 3 14 8 13 45 15 45 2z m85 -7 c18 -13 17 -14 -13 -8 -18 4 -32 3 -32 -2 0
-5 -15 -10 -33 -10 l-32 -2 33 11 c17 5 32 14 32 18 0 14 23 10 45 -7z m242
-30 c-3 -3 -12 -4 -19 -1 -8 3 -5 6 6 6 11 1 17 -2 13 -5z m20 -20 c-3 -3 -12
-4 -19 -1 -8 3 -5 6 6 6 11 1 17 -2 13 -5z m38 -4 c-3 -5 -11 -10 -16 -10 -6
0 -7 5 -4 10 3 6 11 10 16 10 6 0 7 -4 4 -10z m-1598 -26 c-3 -3 -12 -4 -19
-1 -8 3 -5 6 6 6 11 1 17 -2 13 -5z m3343 -4 c24 -15 7 -21 -102 -36 -57 -8
-125 -19 -153 -25 -50 -10 -156 -48 -165 -58 -3 -3 -23 -16 -45 -27 -21 -12
-41 -26 -43 -32 -3 -10 43 -44 73 -56 6 -2 7 -6 4 -10 -11 -12 -177 12 -204
30 -28 18 -33 34 -10 34 8 0 19 9 25 20 6 11 17 20 26 20 8 0 17 7 20 15 4 8
15 15 26 15 10 0 30 11 44 25 14 14 34 25 45 25 11 0 28 4 37 9 23 12 73 21
162 27 79 5 180 21 188 29 9 8 56 5 72 -5z m525 -60 c-3 -5 -10 -10 -16 -10
-5 0 -9 5 -9 10 0 6 7 10 16 10 8 0 12 -4 9 -10z m-3858 -6 c-3 -3 -12 -4 -19
-1 -8 3 -5 6 6 6 11 1 17 -2 13 -5z m-159 -89 c2 -2 1 -8 -2 -14 -4 -6 -17 -6
-39 1 -53 18 -58 31 -7 24 24 -4 46 -9 48 -11z m2768 -135 c9 0 12 -4 9 -10
-7 -12 -65 -14 -65 -2 0 15 13 23 28 17 7 -3 20 -5 28 -5z m-2747 -129 c18
-18 23 -18 60 -5 53 18 203 23 209 6 2 -7 10 -12 17 -12 8 0 17 -4 20 -10 9
-15 -51 -47 -102 -55 -25 -4 -55 -11 -67 -16 -14 -7 -47 -5 -101 5 -44 8 -71
15 -60 15 19 2 19 3 -4 21 -13 11 -18 20 -12 20 6 0 11 5 11 10 0 7 -14 8 -37
4 -34 -6 -37 -5 -25 9 12 14 23 18 65 26 4 0 16 -8 26 -18z m581 -151 c0 -5
-4 -10 -9 -10 -6 0 -13 5 -16 10 -3 6 1 10 9 10 9 0 16 -4 16 -10z m218 -62
c-6 -18 -28 -21 -28 -4 0 9 7 16 16 16 9 0 14 -5 12 -12z m-1861 -45 c-3 -10
-5 -2 -5 17 0 19 2 27 5 18 2 -10 2 -26 0 -35z"/>
<path d="M2740 9570 c0 -5 5 -10 11 -10 5 0 7 5 4 10 -3 6 -8 10 -11 10 -2 0
-4 -4 -4 -10z"/>
<path d="M2961 9514 c0 -11 3 -14 6 -6 3 7 2 16 -1 19 -3 4 -6 -2 -5 -13z"/>
<path d="M7813 9389 c-7 -7 -35 -10 -72 -7 -45 3 -61 1 -61 -9 0 -19 39 -37
53 -24 11 9 71 21 120 24 21 2 22 13 1 21 -22 8 -28 8 -41 -5z"/>
<path d="M7652 9361 c2 -7 7 -12 11 -12 12 1 9 15 -3 20 -7 2 -11 -2 -8 -8z"/>
<path d="M7918 9333 c-30 -8 -20 -23 16 -23 49 0 96 11 90 21 -5 9 -75 10
-106 2z"/>
<path d="M6950 9270 c20 -13 40 -13 40 0 0 6 -12 10 -27 10 -22 0 -25 -2 -13
-10z"/>
<path d="M7005 9250 c-19 -8 -19 -9 3 -9 12 -1 22 4 22 9 0 6 -1 10 -2 9 -2 0
-12 -4 -23 -9z"/>
<path d="M6800 9134 c0 -8 5 -12 10 -9 6 4 8 11 5 16 -9 14 -15 11 -15 -7z"/>
<path d="M4690 9021 c-14 -4 -29 -16 -35 -28 -5 -12 -18 -26 -30 -31 -79 -34
-114 -56 -119 -75 -9 -35 -7 -47 8 -47 8 0 28 -11 43 -24 l28 -25 -37 -15
c-21 -9 -42 -16 -47 -16 -12 0 -23 -33 -16 -51 8 -23 -10 -39 -51 -46 -21 -3
-44 -12 -51 -20 -8 -10 -23 -14 -42 -11 -21 3 -31 0 -31 -8 0 -7 -6 -15 -12
-18 -7 -3 4 -3 25 0 24 4 37 2 37 -5 0 -16 70 -13 100 4 29 16 90 20 90 5 0
-15 29 -12 46 4 7 8 19 16 26 18 7 3 12 16 11 30 -2 16 7 34 23 49 25 23 26
23 56 6 33 -19 48 -15 48 13 0 24 -18 29 -52 16 -15 -5 -30 -7 -34 -4 -8 8 21
39 33 36 4 -1 25 4 47 11 25 9 58 11 92 7 31 -4 55 -2 59 4 3 5 16 10 28 10
19 1 20 2 5 10 -11 7 -56 5 -135 -5 -114 -16 -207 -13 -219 6 -3 5 6 9 19 9
36 0 50 23 42 70 -5 29 -3 40 6 40 33 0 154 71 142 84 -8 8 -70 6 -103 -3z
m-143 -318 c-9 -9 -17 -11 -21 -5 -3 6 2 18 11 28 12 12 18 13 21 4 2 -6 -2
-19 -11 -27z"/>
<path d="M5178 8892 c-10 -2 -18 -7 -18 -12 0 -4 8 -10 18 -14 9 -3 23 -9 30
-12 6 -3 12 1 12 9 0 20 -21 34 -42 29z"/>
<path d="M5000 8870 c-12 -8 -11 -13 9 -33 17 -19 28 -23 49 -18 39 11 38 28
-4 46 -43 18 -36 17 -54 5z"/>
<path d="M4880 8759 c0 -5 5 -7 10 -4 6 3 10 8 10 11 0 2 -4 4 -10 4 -5 0 -10
-5 -10 -11z"/>
<path d="M5295 8750 c4 -6 11 -8 16 -5 14 9 11 15 -7 15 -8 0 -12 -5 -9 -10z"/>
<path d="M3610 8625 c11 -13 11 -20 0 -39 -7 -13 -10 -28 -6 -34 7 -12 92 9
93 23 1 20 -9 35 -24 35 -8 0 -12 -4 -8 -9 3 -5 1 -12 -5 -16 -5 -3 -10 -1
-10 6 0 6 -10 20 -22 30 -26 23 -35 25 -18 4z"/>
<path d="M8016 8615 c-9 -13 -28 -35 -43 -50 -15 -14 -22 -25 -16 -25 18 0 70
52 78 78 8 29 1 28 -19 -3z"/>
<path d="M3828 8453 c-36 -4 -51 -24 -29 -37 12 -8 81 22 81 34 0 6 -3 9 -7 8
-5 -1 -25 -3 -45 -5z"/>
<path d="M5758 8284 c-5 -4 -8 -16 -8 -28 0 -14 3 -17 11 -9 6 6 9 19 7 28 -1
9 -6 13 -10 9z"/>
<path d="M5787 8269 c7 -7 15 -10 18 -7 3 3 -2 9 -12 12 -14 6 -15 5 -6 -5z"/>
<path d="M3228 7220 c-15 -4 -40 -17 -56 -29 -16 -11 -42 -19 -58 -18 -23 2
-30 -3 -32 -20 -3 -18 -13 -23 -75 -32 -97 -15 -148 -42 -177 -93 -13 -23 -31
-49 -42 -60 -13 -13 -18 -31 -17 -61 2 -46 -16 -149 -36 -212 -15 -46 -29
-164 -26 -215 4 -47 37 -205 47 -222 4 -7 9 -33 10 -58 1 -25 11 -70 23 -100
12 -30 21 -65 21 -78 0 -13 11 -37 25 -54 14 -16 25 -40 25 -53 0 -18 7 -24
33 -29 19 -3 70 -24 113 -45 117 -56 259 -180 439 -381 72 -81 71 -81 94 -5
12 37 21 82 21 100 l0 34 108 -6 c104 -6 109 -5 136 19 26 22 30 33 36 104 3
45 13 93 24 112 9 19 15 41 12 49 -3 8 1 24 9 36 8 12 15 37 15 57 l0 35 50 0
c27 0 55 6 62 13 19 19 14 98 -10 173 l-22 65 21 69 c18 58 20 83 14 148 -3
43 -13 101 -21 128 -13 44 -13 51 2 74 14 21 15 40 10 108 -9 108 -21 148 -51
181 -16 17 -25 39 -25 60 0 38 -15 56 -47 56 -13 0 -23 6 -23 14 0 24 -28 40
-45 26 -12 -10 -19 -7 -41 19 -22 27 -32 31 -70 29 -46 -1 -67 8 -46 21 13 8
-4 9 -123 11 -59 1 -60 2 -30 15 27 13 28 14 7 15 -13 0 -40 -10 -62 -22 -32
-19 -42 -20 -62 -11 -19 10 -130 45 -132 42 -1 0 -13 -4 -28 -9z m-113 -70
c-3 -5 -11 -10 -16 -10 -6 0 -7 5 -4 10 3 6 11 10 16 10 6 0 7 -4 4 -10z m655
-51 c0 -6 -4 -7 -10 -4 -5 3 -10 11 -10 16 0 6 5 7 10 4 6 -3 10 -11 10 -16z
m68 -21 c-4 -27 -28 -36 -28 -10 0 20 8 32 22 32 5 0 8 -10 6 -22z m70 -46 c2
-14 -2 -22 -11 -22 -19 0 -40 26 -32 40 11 18 40 6 43 -18z m59 -144 c-3 -7
-5 -2 -5 12 0 14 2 19 5 13 2 -7 2 -19 0 -25z m23 -83 c0 -14 -4 -25 -10 -25
-11 0 -14 33 -3 43 11 11 13 8 13 -18z"/>
<path d="M7575 6436 c-38 -6 -91 -21 -116 -33 -25 -13 -50 -23 -56 -23 -5 0
-18 -10 -29 -21 -10 -12 -43 -37 -72 -56 -55 -36 -96 -88 -108 -138 -4 -16
-15 -41 -24 -55 -22 -33 -145 -270 -128 -248 7 9 19 25 26 35 11 15 12 10 9
-37 -3 -30 -8 -64 -12 -75 -5 -15 -4 -16 3 -6 7 10 12 1 16 -35 8 -56 -5 -94
-61 -186 -41 -67 -40 -95 5 -123 34 -21 35 -25 16 -106 -4 -17 0 -31 10 -42 9
-8 16 -28 16 -43 0 -15 9 -37 20 -49 12 -12 24 -45 29 -73 10 -65 33 -100 79
-119 32 -14 49 -14 132 -3 52 7 104 13 114 14 16 1 23 -15 44 -109 13 -60 28
-114 33 -119 5 -5 60 40 132 110 215 208 347 325 383 340 29 12 39 12 61 2 14
-7 31 -22 37 -33 6 -10 21 -28 34 -38 12 -10 22 -25 22 -33 0 -8 5 -14 10 -14
6 0 10 -6 10 -14 0 -8 -19 -18 -47 -25 -27 -7 -79 -27 -118 -46 -38 -18 -101
-45 -140 -61 -129 -51 -235 -104 -235 -117 0 -6 -40 -50 -88 -97 -90 -87 -187
-193 -301 -334 -41 -51 -66 -74 -71 -66 -23 37 -173 -231 -303 -540 -73 -174
-80 -200 -68 -250 6 -30 4 -40 -21 -71 -15 -20 -41 -74 -57 -120 -22 -62 -38
-90 -62 -109 -17 -14 -51 -45 -75 -69 -30 -29 -55 -45 -76 -48 -17 -2 -56 -10
-87 -17 -31 -8 -81 -16 -111 -17 l-55 -3 3 170 c2 93 10 198 18 234 20 94 35
152 47 177 7 15 5 54 -6 130 -12 84 -26 132 -63 218 l-47 110 17 84 c13 63 34
116 85 215 109 210 115 289 29 373 l-43 42 -49 -14 c-26 -8 -52 -13 -56 -10
-4 2 -17 -9 -29 -26 -21 -28 -24 -29 -41 -14 -16 15 -24 9 -130 -102 -61 -65
-122 -138 -135 -163 -14 -25 -24 -37 -25 -27 0 10 11 40 25 67 14 27 25 56 25
64 0 9 27 46 61 83 55 60 59 68 44 79 -12 9 -25 10 -42 3 -13 -5 -37 -9 -52
-9 -38 0 -56 -24 -75 -97 -8 -35 -36 -108 -62 -164 -36 -78 -50 -124 -62 -203
l-15 -101 -67 -70 c-37 -38 -70 -80 -74 -91 -12 -39 9 -72 57 -86 l43 -13 -12
-70 c-7 -38 -13 -79 -13 -89 -1 -18 1 -18 20 3 19 21 28 22 73 16 28 -3 54 -9
58 -13 3 -4 3 -25 -1 -47 -6 -39 -8 -40 -49 -43 -36 -3 -42 -6 -42 -26 0 -13
-6 -29 -14 -35 -8 -7 -20 -35 -26 -64 -7 -29 -30 -108 -50 -177 -21 -69 -41
-146 -45 -172 -6 -41 -10 -47 -34 -50 -25 -3 -24 -4 16 -26 23 -12 48 -32 54
-44 9 -16 10 -81 5 -242 -9 -271 -16 -292 -86 -287 -8 0 -4 -5 9 -11 22 -11
23 -16 18 -76 -3 -44 -10 -67 -22 -76 -16 -12 -14 -16 29 -46 l46 -33 0 -273
c0 -286 13 -494 35 -572 7 -26 32 -112 56 -190 38 -129 44 -142 57 -125 12 16
13 14 8 -21 -4 -22 -4 -37 0 -34 5 5 11 28 13 51 1 4 131 7 290 7 278 0 290
-1 304 -20 13 -19 14 -18 14 10 0 17 -3 30 -7 30 -4 0 -7 6 -7 13 0 6 -5 41
-11 77 -6 36 -14 160 -17 275 -6 223 -15 291 -70 542 -19 86 -35 172 -35 189
0 17 -14 62 -31 99 -28 58 -30 72 -23 108 l9 42 205 2 c132 1 232 7 280 16 41
8 76 14 78 12 2 -2 -8 -75 -22 -162 -39 -239 -76 -553 -83 -693 -8 -169 -18
-162 245 -175 109 -5 108 -2 88 -233 -9 -103 -21 -268 -26 -367 -10 -189 -14
-635 -5 -635 13 0 367 156 464 204 327 164 691 403 976 641 151 125 392 354
403 382 11 28 48 268 77 498 29 238 85 990 85 1153 0 116 -23 262 -75 471 -24
97 -51 230 -60 296 -9 66 -23 147 -31 180 -17 74 -17 128 -2 267 16 141 6 187
-72 346 l-60 123 1 107 c1 101 2 104 10 48 5 -32 12 -62 15 -65 11 -10 -5 136
-26 232 -11 51 -35 178 -54 282 -70 381 -120 523 -234 667 -98 123 -251 230
-377 263 -70 18 -309 19 -420 1z m-1572 -3066 c4 -16 9 -76 13 -135 l7 -105
-34 0 c-19 0 -51 3 -72 7 -38 6 -39 7 -32 40 11 62 87 223 105 223 4 0 10 -13
13 -30z m833 -807 c-16 -93 -18 -97 -28 -79 -10 17 -3 67 14 99 15 28 21 20
14 -20z m-856 12 c0 -7 -6 -18 -14 -22 -8 -4 -24 -29 -35 -55 -11 -27 -23 -48
-26 -48 -3 0 -5 32 -5 70 l0 70 40 0 c28 0 40 -4 40 -15z m-113 -161 c-3 -3
-12 -4 -19 -1 -8 3 -5 6 6 6 11 1 17 -2 13 -5z m123 -88 c0 -8 11 -27 25 -42
19 -21 25 -38 25 -73 0 -25 7 -102 15 -169 22 -189 29 -413 16 -526 -6 -55
-14 -102 -16 -105 -8 -7 -30 27 -63 94 -52 106 -64 154 -74 310 -9 130 -8 161
7 230 9 44 19 128 22 188 5 96 8 107 24 107 11 0 19 -7 19 -14z"/>
<path d="M1045 6381 c7 -25 2 -26 -28 -8 -33 20 -87 0 -76 -28 12 -32 12 -32
-38 -32 -27 0 -63 -4 -80 -8 -27 -6 -33 -12 -33 -34 0 -21 -7 -31 -32 -42 -22
-9 -33 -21 -34 -35 -1 -12 -11 -35 -23 -52 -15 -22 -21 -45 -21 -86 0 -38 -6
-66 -20 -88 -26 -42 -26 -111 -1 -146 23 -33 41 -90 42 -128 2 -115 8 -156 24
-175 10 -10 52 -39 94 -64 67 -39 151 -106 151 -120 0 -3 -8 -5 -18 -5 -11 0
-27 -8 -36 -19 -16 -17 -15 -21 14 -69 l31 -50 5 -178 c4 -201 16 -357 44
-584 10 -85 24 -227 31 -316 l13 -161 72 -76 c39 -43 67 -77 60 -78 -65 -5
-227 6 -337 22 -130 21 -137 21 -172 4 -20 -9 -41 -15 -47 -13 -11 3 110 368
132 396 7 9 25 30 40 46 15 17 45 62 67 101 113 197 117 334 20 685 -41 151
-116 319 -182 412 l-34 47 -54 -55 c-29 -29 -59 -54 -66 -54 -7 0 -52 -15
-100 -33 -49 -19 -126 -46 -173 -62 -47 -15 -93 -34 -103 -43 -24 -21 -45 -98
-53 -190 -8 -99 -30 -239 -51 -324 -14 -58 -15 -75 -3 -136 9 -48 11 -115 8
-209 -5 -128 -3 -149 27 -299 103 -504 294 -1021 542 -1463 99 -178 157 -271
167 -268 5 2 24 54 43 117 19 63 38 118 42 123 4 4 27 -102 51 -235 24 -134
47 -257 51 -273 20 -71 523 -654 545 -632 12 12 8 222 -5 327 -13 101 -14 353
-1 540 5 74 12 284 15 465 7 346 20 478 54 556 11 24 29 93 41 154 18 95 19
119 9 184 -6 42 -8 107 -4 150 5 58 3 85 -9 112 -12 29 -13 44 -4 75 17 61 3
262 -27 399 -18 81 -29 170 -34 275 -7 131 -14 172 -41 265 -49 167 -56 177
-152 225 -183 89 -273 142 -288 165 -8 14 -19 25 -23 25 -12 0 0 -66 18 -100
20 -40 50 -156 109 -425 31 -137 80 -329 111 -425 79 -247 107 -362 109 -451
1 -57 -3 -82 -17 -103 -10 -15 -21 -25 -24 -22 -3 3 -20 -6 -38 -19 -30 -23
-95 -45 -95 -31 0 3 17 39 37 81 l37 74 -17 128 c-57 414 -143 817 -203 948
-23 50 -29 78 -33 170 l-6 110 -32 16 -33 16 31 43 c18 24 36 59 41 78 6 20
21 44 34 55 38 30 77 94 128 212 26 61 52 118 57 127 21 39 39 105 39 144 0
30 -8 51 -30 80 -16 21 -30 42 -30 47 0 13 27 8 40 -8 7 -8 17 -15 23 -15 6 0
-1 13 -16 28 -21 22 -24 31 -15 40 9 9 9 12 0 12 -7 0 -12 11 -12 24 0 24 -21
49 -36 44 -5 -2 -11 2 -13 7 -2 6 -9 18 -16 29 -8 10 -11 24 -8 31 2 8 -5 18
-16 25 -13 7 -21 7 -21 1 0 -18 -28 0 -35 22 -6 21 -7 21 -19 -7 -13 -28 -14
-28 -27 -9 -8 11 -25 25 -37 32 -22 12 -23 11 -17 -8z m25 -22 c0 -11 -4 -18
-10 -14 -5 3 -7 12 -3 20 7 21 13 19 13 -6z m495 -2829 c14 -26 14 -30 1 -30
-15 0 -36 29 -36 49 0 21 20 10 35 -19z m-1121 -182 c-23 -45 -46 -61 -58 -41
-6 11 1 23 25 44 44 37 53 36 33 -3z"/>
<path d="M9865 5895 c-115 -28 -179 -87 -226 -208 -31 -82 -38 -112 -60 -282
-19 -145 -22 -207 -10 -246 12 -40 66 -99 90 -99 31 1 101 39 145 80 38 36 47
40 52 25 4 -9 1 -34 -6 -55 -13 -41 -13 -49 19 -183 21 -89 66 -177 81 -161 5
5 20 41 35 79 30 82 58 125 124 199 27 30 52 63 56 75 5 16 15 21 41 21 l34 0
0 68 c0 124 -30 492 -46 575 -7 36 -46 73 -109 103 -57 27 -135 30 -220 9z
m-115 -662 c-11 -17 -11 -17 -6 0 3 10 6 24 7 30 0 9 2 9 5 0 3 -7 0 -20 -6
-30z m455 -52 c-3 -6 -11 -11 -17 -11 -6 0 -6 6 2 15 14 17 26 13 15 -4z"/>
<path d="M2781 5809 c-11 -13 -38 -47 -59 -75 -44 -57 -68 -65 -237 -84 -111
-12 -182 -45 -280 -130 -79 -69 -109 -109 -170 -230 -61 -121 -84 -205 -96
-349 -12 -145 -8 -213 31 -476 25 -172 35 -213 109 -438 94 -288 121 -389 157
-587 14 -80 32 -167 40 -194 7 -27 18 -99 24 -160 6 -61 17 -151 26 -201 9
-49 13 -106 10 -126 -3 -20 -45 -164 -92 -320 -102 -333 -124 -419 -164 -634
-33 -178 -120 -690 -120 -705 0 -6 36 -37 81 -70 l81 -60 89 0 c77 0 90 -2 99
-19 8 -15 6 -29 -7 -57 -21 -44 -40 -27 190 -167 296 -180 660 -347 1012 -464
168 -56 512 -150 520 -142 3 4 18 102 105 704 16 116 32 225 35 242 l6 33 62
-3 62 -2 10 39 c7 28 19 45 42 58 39 24 47 60 41 205 -3 92 -5 104 -35 152
l-33 52 -10 347 c-5 191 -12 422 -16 515 l-7 167 31 -6 c24 -5 33 -2 38 10 3
9 14 16 24 16 12 0 23 17 38 58 42 116 93 307 118 445 14 78 28 153 30 166 4
21 9 22 42 16 20 -3 41 -10 45 -14 10 -10 -9 -200 -28 -271 -8 -30 -23 -66
-35 -82 -11 -15 -20 -36 -20 -47 0 -30 -38 -125 -61 -155 -11 -14 -29 -26 -40
-26 -15 0 -19 -7 -19 -36 0 -40 -14 -71 -42 -94 -28 -22 -33 -92 -14 -167 10
-38 20 -140 26 -260 10 -213 21 -278 87 -478 l36 -110 -2 -232 c0 -144 3 -234
9 -238 6 -3 10 -1 10 5 0 6 5 8 10 5 6 -3 10 0 10 7 0 10 2 10 8 1 6 -9 88
-13 311 -15 233 -2 305 -6 309 -15 2 -7 8 -13 13 -13 6 0 5 8 -1 20 -7 12 -16
17 -27 13 -11 -4 -14 -3 -9 5 4 7 16 12 28 12 20 0 20 4 15 133 -3 72 -11 195
-19 272 -19 206 -15 398 11 522 13 64 19 117 15 141 -13 82 59 153 177 176 20
3 44 15 54 27 17 18 17 21 3 35 -8 9 -46 26 -82 39 -90 31 -110 46 -135 98
-23 48 -20 77 10 77 12 0 28 14 40 34 15 26 30 37 67 46 58 16 80 34 90 74 7
26 13 31 34 28 32 -3 34 6 43 181 5 94 4 131 -5 142 -9 11 -33 15 -81 15 -40
0 -71 5 -75 11 -4 7 -41 27 -82 46 l-75 35 8 96 c4 54 9 162 11 242 3 142 3
145 26 150 17 4 27 18 38 52 9 25 22 53 28 61 9 11 15 78 19 224 5 175 2 236
-16 383 -11 96 -25 229 -31 295 -6 66 -17 129 -24 140 -7 11 -50 36 -96 55
-45 19 -91 46 -103 60 l-20 25 6 -30 c22 -107 39 -289 32 -341 l-8 -59 -14 95
c-8 52 -26 120 -39 151 -35 77 -36 106 -8 155 18 30 21 43 12 52 -8 8 0 33 35
99 l45 89 -4 84 c-6 101 -23 140 -74 169 -62 35 -133 26 -186 -24 -31 -29 -34
-38 -34 -87 0 -39 -5 -60 -16 -69 -21 -17 -13 -70 15 -106 13 -15 21 -40 21
-63 0 -32 10 -48 69 -115 62 -69 68 -79 55 -93 -10 -9 -13 -24 -10 -38 13 -50
-11 -19 -64 82 -30 58 -58 108 -62 110 -3 2 -21 -5 -40 -15 -41 -25 -111 -48
-179 -61 -29 -6 -63 -17 -75 -24 -26 -17 -46 -93 -68 -251 -36 -261 -32 -369
24 -600 20 -84 32 -166 39 -275 16 -252 24 -517 14 -523 -4 -2 -98 23 -207 57
l-199 62 2 85 c1 46 7 165 14 264 6 99 12 225 12 280 -1 100 -1 100 -62 245
-63 148 -125 310 -187 483 -42 118 -102 224 -193 337 -75 93 -114 124 -170
135 -35 6 -40 4 -73 -35 l-36 -42 -46 61 c-101 129 -293 345 -352 393 -142
119 -227 153 -265 107z m792 -731 c10 -14 17 -36 15 -49 -3 -21 -8 -17 -32 30
-28 54 -18 66 17 19z m392 -662 c15 -53 28 -128 31 -180 l5 -91 -35 67 c-34
64 -62 164 -107 377 -10 51 -19 98 -18 105 2 25 100 -195 124 -278z m795 -476
c0 -5 -4 -10 -9 -10 -6 0 -13 5 -16 10 -3 6 1 10 9 10 9 0 16 -4 16 -10z m116
-1302 c32 9 41 8 82 -17 l47 -27 -2 -119 c-1 -65 -7 -140 -14 -167 -9 -40 -9
-62 2 -111 20 -90 16 -210 -15 -402 -26 -162 -54 -254 -81 -262 -6 -2 -27 47
-48 109 -146 453 -145 445 -102 496 14 17 25 39 25 50 0 11 -27 50 -60 86 -59
65 -60 67 -60 126 0 32 -4 70 -9 83 -8 20 -5 31 14 57 26 35 39 66 55 127 l11
42 60 -41 c56 -39 62 -40 95 -30z m304 -192 c0 -2 -7 -6 -15 -10 -8 -3 -15 -1
-15 4 0 6 7 10 15 10 8 0 15 -2 15 -4z"/>
<path d="M6980 5780 c-12 -16 -19 -30 -16 -30 2 0 14 14 26 30 12 17 19 30 16
30 -2 0 -14 -13 -26 -30z"/>
<path d="M6934 5718 l-19 -23 23 19 c21 18 27 26 19 26 -2 0 -12 -10 -23 -22z"/>
<path d="M6035 5377 c-53 -39 -74 -71 -89 -136 -11 -49 -12 -68 -3 -83 9 -14
9 -20 -1 -27 -9 -5 -6 -11 12 -20 14 -8 28 -29 35 -51 6 -22 34 -63 61 -93 29
-32 51 -66 52 -81 3 -30 7 -31 34 -11 10 8 25 15 32 15 7 0 36 16 65 35 l52
35 18 -21 c20 -25 33 -20 19 8 -26 50 -43 191 -22 178 7 -4 8 8 4 37 -25 169
-172 287 -269 215z"/>
<path d="M10230 5090 c0 -5 -21 -21 -47 -34 -27 -13 -58 -35 -70 -48 -38 -41
-105 -178 -138 -283 l-31 -100 -33 85 c-36 91 -81 258 -81 296 0 20 -4 23 -27
18 -16 -3 -36 1 -47 9 -14 10 -31 12 -65 6 -25 -5 -86 -11 -135 -15 -106 -7
-103 -5 -195 -161 -98 -165 -170 -273 -217 -325 -52 -56 -161 -274 -170 -339
-5 -36 0 -60 21 -115 42 -104 89 -194 169 -323 40 -64 83 -136 96 -161 31 -58
50 -80 67 -80 10 0 7 9 -9 31 l-23 31 63 59 c76 72 119 82 49 12 l-47 -47 20
-21 c15 -16 17 -24 8 -33 -10 -10 -1 -11 37 -6 28 3 62 10 78 14 21 7 27 6 27
-6 0 -8 10 -14 23 -14 49 0 52 -12 29 -97 -54 -191 -130 -607 -171 -931 -30
-234 -31 -232 30 -137 368 574 636 1285 738 1965 38 253 76 760 58 760 -4 0
-7 -4 -7 -10z m-699 -647 c6 -32 26 -111 45 -177 29 -104 34 -140 40 -287 l7
-168 -24 -10 c-13 -5 -37 -23 -53 -40 -17 -17 -33 -31 -37 -31 -4 0 -30 42
-57 93 -28 50 -62 103 -77 117 -45 41 -76 98 -87 160 -9 54 -8 60 17 100 15
23 33 60 41 83 14 38 149 217 165 217 4 0 13 -26 20 -57z"/>
<path d="M5670 3719 c0 -5 5 -7 10 -4 6 3 10 8 10 11 0 2 -4 4 -10 4 -5 0 -10
-5 -10 -11z"/>
</g>
</svg>
